{
	"asset":{
		"generator":"Khronos glTF Blender I/O v4.0.44",
		"version":"2.0"
	},
	"extensionsUsed":[
		"KHR_materials_emissive_strength",
		"KHR_materials_transmission",
		"KHR_materials_ior"
	],
	"scene":0,
	"scenes":[
		{
			"name":"Scene",
			"nodes":[
				0,
				1,
				2,
				4,
				5,
				6,
				7,
				8,
				9,
				10,
				11,
				12
			]
		}
	],
	"nodes":[
		{
			"camera":0,
			"name":"Camera",
			"rotation":[
				-0.00164600380230695,
				0.705332338809967,
				0.0016439262544736266,
				0.7088730931282043
			],
			"translation":[
				16.215499877929688,
				4.051670074462891,
				0.011486399918794632
			]
		},
		{
			"mesh":0,
			"name":"Ceiling Light",
			"rotation":[
				0,
				-0.7071067094802856,
				0,
				0.7071068286895752
			],
			"scale":[
				0.27575400471687317,
				0.15208099782466888,
				0.27575498819351196
			],
			"translation":[
				-2.481610059738159,
				6,
				2.589400053024292
			]
		},
		{
			"mesh":1,
			"name":"Lamp",
			"rotation":[
				0.7071068286895752,
				0,
				0,
				0.7071068286895752
			]
		},
		{
			"mesh":2,
			"name":"Light",
			"rotation":[
				0.11762019246816635,
				-0.7337374091148376,
				-0.18962828814983368,
				0.6417445540428162
			],
			"scale":[
				0.06799595803022385,
				0.019634095951914787,
				0.06799600273370743
			],
			"translation":[
				-0.032254695892333984,
				-0.40739378333091736,
				-0.1960151642560959
			]
		},
		{
			"children":[
				3
			],
			"mesh":3,
			"name":"Light Shell",
			"rotation":[
				0.7071068286895752,
				0,
				0,
				0.7071068286895752
			],
			"translation":[
				-2.6585652828216553,
				4.908154487609863,
				-3.3631763458251953
			]
		},
		{
			"mesh":4,
			"name":"Egg",
			"rotation":[
				0.7071068286895752,
				0,
				0,
				0.7071068286895752
			]
		},
		{
			"mesh":5,
			"name":"Table Leg",
			"rotation":[
				0.7071068286895752,
				0,
				0,
				0.7071068286895752
			]
		},
		{
			"mesh":6,
			"name":"Table Leg.001",
			"rotation":[
				0.7071068286895752,
				0,
				0,
				0.7071068286895752
			]
		},
		{
			"mesh":7,
			"name":"Table Leg.002",
			"rotation":[
				0.7071068286895752,
				0,
				0,
				0.7071068286895752
			]
		},
		{
			"mesh":8,
			"name":"Table Leg.003",
			"rotation":[
				0.7071068286895752,
				0,
				0,
				0.7071068286895752
			]
		},
		{
			"mesh":9,
			"name":"Table",
			"rotation":[
				0.7071068286895752,
				0,
				0,
				0.7071068286895752
			]
		},
		{
			"mesh":10,
			"name":"Room",
			"rotation":[
				0.7071068286895752,
				0,
				0,
				0.7071068286895752
			]
		},
		{
			"mesh":11,
			"name":"Cube",
			"rotation":[
				0,
				0.3060137927532196,
				0,
				0.9520270824432373
			],
			"translation":[
				-1.7118371725082397,
				2.0497004985809326,
				0.18748922646045685
			]
		}
	],
	"cameras":[
		{
			"name":"Camera",
			"perspective":{
				"aspectRatio":1,
				"yfov":0.6108652353286743,
				"zfar":10000,
				"znear":0.009999999776482582
			},
			"type":"perspective"
		}
	],
	"animations":[
		{
			"channels":[
				{
					"sampler":0,
					"target":{
						"node":4,
						"path":"translation"
					}
				},
				{
					"sampler":1,
					"target":{
						"node":4,
						"path":"rotation"
					}
				}
			],
			"name":"Light Shell",
			"samplers":[
				{
					"input":52,
					"interpolation":"LINEAR",
					"output":53
				},
				{
					"input":52,
					"interpolation":"LINEAR",
					"output":54
				}
			]
		},
		{
			"channels":[
				{
					"sampler":0,
					"target":{
						"node":12,
						"path":"translation"
					}
				},
				{
					"sampler":1,
					"target":{
						"node":12,
						"path":"rotation"
					}
				}
			],
			"name":"Cube",
			"samplers":[
				{
					"input":52,
					"interpolation":"LINEAR",
					"output":55
				},
				{
					"input":52,
					"interpolation":"LINEAR",
					"output":56
				}
			]
		}
	],
	"materials":[
		{
			"doubleSided":true,
			"emissiveFactor":[
				1,
				1,
				1
			],
			"extensions":{
				"KHR_materials_emissive_strength":{
					"emissiveStrength":523.2579956054688
				}
			},
			"name":"Ceiling Light",
			"pbrMetallicRoughness":{
				"baseColorFactor":[
					0.800000011920929,
					0.800000011920929,
					0.800000011920929,
					1
				],
				"metallicFactor":0,
				"roughnessFactor":0.5
			}
		},
		{
			"doubleSided":true,
			"name":"Lamp",
			"pbrMetallicRoughness":{
				"baseColorFactor":[
					0.5251280069351196,
					0.39264899492263794,
					0.310589998960495,
					1
				],
				"roughnessFactor":0.5
			}
		},
		{
			"doubleSided":true,
			"emissiveFactor":[
				1,
				0.7142840027809143,
				0.5142850279808044
			],
			"extensions":{
				"KHR_materials_emissive_strength":{
					"emissiveStrength":12048.2001953125
				}
			},
			"name":"Main Light",
			"pbrMetallicRoughness":{
				"baseColorFactor":[
					0.800000011920929,
					0.800000011920929,
					0.800000011920929,
					1
				],
				"metallicFactor":0,
				"roughnessFactor":0.5
			}
		},
		{
			"doubleSided":true,
			"name":"Diffuse",
			"pbrMetallicRoughness":{
				"baseColorFactor":[
					0.5,
					0.5,
					0.5,
					1
				],
				"metallicFactor":0
			}
		},
		{
			"doubleSided":true,
			"extensions":{
				"KHR_materials_transmission":{
					"transmissionFactor":1
				},
				"KHR_materials_ior":{
					"ior":1.4500000476837158
				}
			},
			"name":"Glass",
			"pbrMetallicRoughness":{
				"metallicFactor":0,
				"roughnessFactor":0
			}
		},
		{
			"doubleSided":true,
			"name":"Wood",
			"pbrMetallicRoughness":{
				"baseColorFactor":[
					0.3296299874782562,
					0.2579759955406189,
					0.15029199421405792,
					1
				],
				"metallicFactor":0
			}
		}
	],
	"meshes":[
		{
			"name":"Ceiling Light",
			"primitives":[
				{
					"attributes":{
						"POSITION":0,
						"NORMAL":1
					},
					"indices":2,
					"material":0
				}
			]
		},
		{
			"name":"Lamp",
			"primitives":[
				{
					"attributes":{
						"POSITION":3,
						"NORMAL":4,
						"TEXCOORD_0":5,
						"TANGENT":6
					},
					"indices":7,
					"material":1
				}
			]
		},
		{
			"name":"Light",
			"primitives":[
				{
					"attributes":{
						"POSITION":8,
						"NORMAL":9
					},
					"indices":2,
					"material":2
				}
			]
		},
		{
			"name":"Light Shell",
			"primitives":[
				{
					"attributes":{
						"POSITION":10,
						"NORMAL":11,
						"TEXCOORD_0":12,
						"TANGENT":13
					},
					"indices":14,
					"material":3
				}
			]
		},
		{
			"name":"Glass",
			"primitives":[
				{
					"attributes":{
						"POSITION":15,
						"NORMAL":16,
						"TEXCOORD_0":17,
						"TANGENT":18
					},
					"indices":19,
					"material":4
				}
			]
		},
		{
			"name":"Table Leg",
			"primitives":[
				{
					"attributes":{
						"POSITION":20,
						"NORMAL":21,
						"TEXCOORD_0":22,
						"TANGENT":23
					},
					"indices":24,
					"material":3
				}
			]
		},
		{
			"name":"Table Leg.001",
			"primitives":[
				{
					"attributes":{
						"POSITION":25,
						"NORMAL":26,
						"TEXCOORD_0":27,
						"TANGENT":28
					},
					"indices":24,
					"material":3
				}
			]
		},
		{
			"name":"Table Leg.002",
			"primitives":[
				{
					"attributes":{
						"POSITION":29,
						"NORMAL":30,
						"TEXCOORD_0":31,
						"TANGENT":32
					},
					"indices":24,
					"material":3
				}
			]
		},
		{
			"name":"Table Leg.003",
			"primitives":[
				{
					"attributes":{
						"POSITION":33,
						"NORMAL":34,
						"TEXCOORD_0":35,
						"TANGENT":36
					},
					"indices":24,
					"material":3
				}
			]
		},
		{
			"name":"Table",
			"primitives":[
				{
					"attributes":{
						"POSITION":37,
						"NORMAL":38,
						"TEXCOORD_0":39,
						"TANGENT":40
					},
					"indices":41,
					"material":5
				}
			]
		},
		{
			"name":"Diffuse",
			"primitives":[
				{
					"attributes":{
						"POSITION":42,
						"NORMAL":43,
						"TEXCOORD_0":44,
						"TANGENT":45
					},
					"indices":46,
					"material":3
				}
			]
		},
		{
			"name":"Cube",
			"primitives":[
				{
					"attributes":{
						"POSITION":47,
						"NORMAL":48,
						"TEXCOORD_0":49,
						"TANGENT":50
					},
					"indices":51,
					"material":3
				}
			]
		}
	],
	"accessors":[
		{
			"bufferView":0,
			"componentType":5126,
			"count":4,
			"max":[
				1,
				0,
				1
			],
			"min":[
				-1,
				0,
				-1
			],
			"type":"VEC3"
		},
		{
			"bufferView":1,
			"componentType":5126,
			"count":4,
			"type":"VEC3"
		},
		{
			"bufferView":2,
			"componentType":5123,
			"count":6,
			"type":"SCALAR"
		},
		{
			"bufferView":3,
			"componentType":5126,
			"count":1987,
			"max":[
				-1.310034990310669,
				3.760974884033203,
				0
			],
			"min":[
				-3.653182029724121,
				1.4178279638290405,
				-6.438912868499756
			],
			"type":"VEC3"
		},
		{
			"bufferView":4,
			"componentType":5126,
			"count":1987,
			"type":"VEC3"
		},
		{
			"bufferView":5,
			"componentType":5126,
			"count":1987,
			"type":"VEC2"
		},
		{
			"bufferView":6,
			"componentType":5126,
			"count":1987,
			"type":"VEC4"
		},
		{
			"bufferView":7,
			"componentType":5123,
			"count":9408,
			"type":"SCALAR"
		},
		{
			"bufferView":8,
			"componentType":5126,
			"count":4,
			"max":[
				1,
				0,
				1
			],
			"min":[
				-1,
				0,
				-1
			],
			"type":"VEC3"
		},
		{
			"bufferView":9,
			"componentType":5126,
			"count":4,
			"type":"VEC3"
		},
		{
			"bufferView":10,
			"componentType":5126,
			"count":448,
			"max":[
				0.3311042785644531,
				0.5690288543701172,
				0.47902393341064453
			],
			"min":[
				-0.3325927257537842,
				-0.5786480903625488,
				-0.48462820053100586
			],
			"type":"VEC3"
		},
		{
			"bufferView":11,
			"componentType":5126,
			"count":448,
			"type":"VEC3"
		},
		{
			"bufferView":12,
			"componentType":5126,
			"count":448,
			"type":"VEC2"
		},
		{
			"bufferView":13,
			"componentType":5126,
			"count":448,
			"type":"VEC4"
		},
		{
			"bufferView":14,
			"componentType":5123,
			"count":1338,
			"type":"SCALAR"
		},
		{
			"bufferView":15,
			"componentType":5126,
			"count":3970,
			"max":[
				-1.8486870527267456,
				-0.26015400886535645,
				-1.9073879718780518
			],
			"min":[
				-2.904723882675171,
				-1.3161920309066772,
				-3.41736102104187
			],
			"type":"VEC3"
		},
		{
			"bufferView":16,
			"componentType":5126,
			"count":3970,
			"type":"VEC3"
		},
		{
			"bufferView":17,
			"componentType":5126,
			"count":3970,
			"type":"VEC2"
		},
		{
			"bufferView":18,
			"componentType":5126,
			"count":3970,
			"type":"VEC4"
		},
		{
			"bufferView":19,
			"componentType":5123,
			"count":23808,
			"type":"SCALAR"
		},
		{
			"bufferView":20,
			"componentType":5126,
			"count":64,
			"max":[
				-1.309380054473877,
				-3.3029708862304688,
				0.09655100107192993
			],
			"min":[
				-1.5333800315856934,
				-3.5269711017608643,
				-1.8160820007324219
			],
			"type":"VEC3"
		},
		{
			"bufferView":21,
			"componentType":5126,
			"count":64,
			"type":"VEC3"
		},
		{
			"bufferView":22,
			"componentType":5126,
			"count":64,
			"type":"VEC2"
		},
		{
			"bufferView":23,
			"componentType":5126,
			"count":64,
			"type":"VEC4"
		},
		{
			"bufferView":24,
			"componentType":5123,
			"count":192,
			"type":"SCALAR"
		},
		{
			"bufferView":25,
			"componentType":5126,
			"count":64,
			"max":[
				-3.2504019737243652,
				-3.3029708862304688,
				0.09655100107192993
			],
			"min":[
				-3.4744019508361816,
				-3.5269711017608643,
				-1.8160820007324219
			],
			"type":"VEC3"
		},
		{
			"bufferView":26,
			"componentType":5126,
			"count":64,
			"type":"VEC3"
		},
		{
			"bufferView":27,
			"componentType":5126,
			"count":64,
			"type":"VEC2"
		},
		{
			"bufferView":28,
			"componentType":5126,
			"count":64,
			"type":"VEC4"
		},
		{
			"bufferView":29,
			"componentType":5126,
			"count":64,
			"max":[
				-3.2504019737243652,
				1.0005890130996704,
				0.09655100107192993
			],
			"min":[
				-3.4744019508361816,
				0.7765889763832092,
				-1.8160820007324219
			],
			"type":"VEC3"
		},
		{
			"bufferView":30,
			"componentType":5126,
			"count":64,
			"type":"VEC3"
		},
		{
			"bufferView":31,
			"componentType":5126,
			"count":64,
			"type":"VEC2"
		},
		{
			"bufferView":32,
			"componentType":5126,
			"count":64,
			"type":"VEC4"
		},
		{
			"bufferView":33,
			"componentType":5126,
			"count":64,
			"max":[
				-1.309380054473877,
				1.0005890130996704,
				0.09655100107192993
			],
			"min":[
				-1.5333800315856934,
				0.7765889763832092,
				-1.8160820007324219
			],
			"type":"VEC3"
		},
		{
			"bufferView":34,
			"componentType":5126,
			"count":64,
			"type":"VEC3"
		},
		{
			"bufferView":35,
			"componentType":5126,
			"count":64,
			"type":"VEC2"
		},
		{
			"bufferView":36,
			"componentType":5126,
			"count":64,
			"type":"VEC4"
		},
		{
			"bufferView":37,
			"componentType":5126,
			"count":24,
			"max":[
				-1.0668749809265137,
				1.3785699605941772,
				-1.7996619939804077
			],
			"min":[
				-3.7068750858306885,
				-3.7356009483337402,
				-1.8996620178222656
			],
			"type":"VEC3"
		},
		{
			"bufferView":38,
			"componentType":5126,
			"count":24,
			"type":"VEC3"
		},
		{
			"bufferView":39,
			"componentType":5126,
			"count":24,
			"type":"VEC2"
		},
		{
			"bufferView":40,
			"componentType":5126,
			"count":24,
			"type":"VEC4"
		},
		{
			"bufferView":41,
			"componentType":5123,
			"count":36,
			"type":"SCALAR"
		},
		{
			"bufferView":42,
			"componentType":5126,
			"count":20,
			"max":[
				4,
				4,
				0
			],
			"min":[
				-4,
				-4,
				-8
			],
			"type":"VEC3"
		},
		{
			"bufferView":43,
			"componentType":5126,
			"count":20,
			"type":"VEC3"
		},
		{
			"bufferView":44,
			"componentType":5126,
			"count":20,
			"type":"VEC2"
		},
		{
			"bufferView":45,
			"componentType":5126,
			"count":20,
			"type":"VEC4"
		},
		{
			"bufferView":46,
			"componentType":5123,
			"count":30,
			"type":"SCALAR"
		},
		{
			"bufferView":47,
			"componentType":5126,
			"count":24,
			"max":[
				0.27269721031188965,
				0.1649240255355835,
				0.08395006507635117
			],
			"min":[
				-0.2726975381374359,
				-0.1649240255355835,
				-0.08395006507635117
			],
			"type":"VEC3"
		},
		{
			"bufferView":48,
			"componentType":5126,
			"count":24,
			"type":"VEC3"
		},
		{
			"bufferView":49,
			"componentType":5126,
			"count":24,
			"type":"VEC2"
		},
		{
			"bufferView":50,
			"componentType":5126,
			"count":24,
			"type":"VEC4"
		},
		{
			"bufferView":51,
			"componentType":5123,
			"count":36,
			"type":"SCALAR"
		},
		{
			"bufferView":52,
			"componentType":5126,
			"count":240,
			"max":[
				8
			],
			"min":[
				0.03333333333333333
			],
			"type":"SCALAR"
		},
		{
			"bufferView":53,
			"componentType":5126,
			"count":240,
			"type":"VEC3"
		},
		{
			"bufferView":54,
			"componentType":5126,
			"count":240,
			"type":"VEC4"
		},
		{
			"bufferView":55,
			"componentType":5126,
			"count":240,
			"type":"VEC3"
		},
		{
			"bufferView":56,
			"componentType":5126,
			"count":240,
			"type":"VEC4"
		}
	],
	"bufferViews":[
		{
			"buffer":0,
			"byteLength":48,
			"byteOffset":0,
			"target":34962
		},
		{
			"buffer":0,
			"byteLength":48,
			"byteOffset":48,
			"target":34962
		},
		{
			"buffer":0,
			"byteLength":12,
			"byteOffset":96,
			"target":34963
		},
		{
			"buffer":0,
			"byteLength":23844,
			"byteOffset":108,
			"target":34962
		},
		{
			"buffer":0,
			"byteLength":23844,
			"byteOffset":23952,
			"target":34962
		},
		{
			"buffer":0,
			"byteLength":15896,
			"byteOffset":47796,
			"target":34962
		},
		{
			"buffer":0,
			"byteLength":31792,
			"byteOffset":63692,
			"target":34962
		},
		{
			"buffer":0,
			"byteLength":18816,
			"byteOffset":95484,
			"target":34963
		},
		{
			"buffer":0,
			"byteLength":48,
			"byteOffset":114300,
			"target":34962
		},
		{
			"buffer":0,
			"byteLength":48,
			"byteOffset":114348,
			"target":34962
		},
		{
			"buffer":0,
			"byteLength":5376,
			"byteOffset":114396,
			"target":34962
		},
		{
			"buffer":0,
			"byteLength":5376,
			"byteOffset":119772,
			"target":34962
		},
		{
			"buffer":0,
			"byteLength":3584,
			"byteOffset":125148,
			"target":34962
		},
		{
			"buffer":0,
			"byteLength":7168,
			"byteOffset":128732,
			"target":34962
		},
		{
			"buffer":0,
			"byteLength":2676,
			"byteOffset":135900,
			"target":34963
		},
		{
			"buffer":0,
			"byteLength":47640,
			"byteOffset":138576,
			"target":34962
		},
		{
			"buffer":0,
			"byteLength":47640,
			"byteOffset":186216,
			"target":34962
		},
		{
			"buffer":0,
			"byteLength":31760,
			"byteOffset":233856,
			"target":34962
		},
		{
			"buffer":0,
			"byteLength":63520,
			"byteOffset":265616,
			"target":34962
		},
		{
			"buffer":0,
			"byteLength":47616,
			"byteOffset":329136,
			"target":34963
		},
		{
			"buffer":0,
			"byteLength":768,
			"byteOffset":376752,
			"target":34962
		},
		{
			"buffer":0,
			"byteLength":768,
			"byteOffset":377520,
			"target":34962
		},
		{
			"buffer":0,
			"byteLength":512,
			"byteOffset":378288,
			"target":34962
		},
		{
			"buffer":0,
			"byteLength":1024,
			"byteOffset":378800,
			"target":34962
		},
		{
			"buffer":0,
			"byteLength":384,
			"byteOffset":379824,
			"target":34963
		},
		{
			"buffer":0,
			"byteLength":768,
			"byteOffset":380208,
			"target":34962
		},
		{
			"buffer":0,
			"byteLength":768,
			"byteOffset":380976,
			"target":34962
		},
		{
			"buffer":0,
			"byteLength":512,
			"byteOffset":381744,
			"target":34962
		},
		{
			"buffer":0,
			"byteLength":1024,
			"byteOffset":382256,
			"target":34962
		},
		{
			"buffer":0,
			"byteLength":768,
			"byteOffset":383280,
			"target":34962
		},
		{
			"buffer":0,
			"byteLength":768,
			"byteOffset":384048,
			"target":34962
		},
		{
			"buffer":0,
			"byteLength":512,
			"byteOffset":384816,
			"target":34962
		},
		{
			"buffer":0,
			"byteLength":1024,
			"byteOffset":385328,
			"target":34962
		},
		{
			"buffer":0,
			"byteLength":768,
			"byteOffset":386352,
			"target":34962
		},
		{
			"buffer":0,
			"byteLength":768,
			"byteOffset":387120,
			"target":34962
		},
		{
			"buffer":0,
			"byteLength":512,
			"byteOffset":387888,
			"target":34962
		},
		{
			"buffer":0,
			"byteLength":1024,
			"byteOffset":388400,
			"target":34962
		},
		{
			"buffer":0,
			"byteLength":288,
			"byteOffset":389424,
			"target":34962
		},
		{
			"buffer":0,
			"byteLength":288,
			"byteOffset":389712,
			"target":34962
		},
		{
			"buffer":0,
			"byteLength":192,
			"byteOffset":390000,
			"target":34962
		},
		{
			"buffer":0,
			"byteLength":384,
			"byteOffset":390192,
			"target":34962
		},
		{
			"buffer":0,
			"byteLength":72,
			"byteOffset":390576,
			"target":34963
		},
		{
			"buffer":0,
			"byteLength":240,
			"byteOffset":390648,
			"target":34962
		},
		{
			"buffer":0,
			"byteLength":240,
			"byteOffset":390888,
			"target":34962
		},
		{
			"buffer":0,
			"byteLength":160,
			"byteOffset":391128,
			"target":34962
		},
		{
			"buffer":0,
			"byteLength":320,
			"byteOffset":391288,
			"target":34962
		},
		{
			"buffer":0,
			"byteLength":60,
			"byteOffset":391608,
			"target":34963
		},
		{
			"buffer":0,
			"byteLength":288,
			"byteOffset":391668,
			"target":34962
		},
		{
			"buffer":0,
			"byteLength":288,
			"byteOffset":391956,
			"target":34962
		},
		{
			"buffer":0,
			"byteLength":192,
			"byteOffset":392244,
			"target":34962
		},
		{
			"buffer":0,
			"byteLength":384,
			"byteOffset":392436,
			"target":34962
		},
		{
			"buffer":0,
			"byteLength":72,
			"byteOffset":392820,
			"target":34963
		},
		{
			"buffer":0,
			"byteLength":960,
			"byteOffset":392892
		},
		{
			"buffer":0,
			"byteLength":2880,
			"byteOffset":393852
		},
		{
			"buffer":0,
			"byteLength":3840,
			"byteOffset":396732
		},
		{
			"buffer":0,
			"byteLength":2880,
			"byteOffset":400572
		},
		{
			"buffer":0,
			"byteLength":3840,
			"byteOffset":403452
		}
	],
	"buffers":[
		{
			"byteLength":407292,
			"uri":"veach-bidir.bin"
		}
	]
}
